<svg width="13" height="10" viewBox="0 0 13 10" fill="none" xmlns="http://www.w3.org/2000/svg">
<path id="Vector" d="M2.80557 0.177697C2.75132 0.122129 2.6867 0.0778373 2.61541 0.047352C2.54411 0.0168667 2.46752 0.000785651 2.39003 2.80761e-05C2.31254 -0.000729499 2.23566 0.013851 2.16378 0.0429366C2.0919 0.0720222 2.02644 0.115043 1.97113 0.16954C1.34546 0.794072 0.849159 1.53681 0.510848 2.3549C0.172538 3.17299 -0.00108222 4.05025 5.07545e-06 4.93605C-0.0010097 5.85584 0.186274 6.76602 0.550232 7.61011C0.91419 8.4542 1.44706 9.21417 2.11575 9.84287C2.2283 9.94732 2.37697 10.0036 2.53019 9.99982C2.68341 9.99601 2.82912 9.93239 2.93638 9.82247C3.19313 9.56469 3.16144 9.15436 2.91444 8.91698C2.37778 8.40348 1.95073 7.78579 1.65922 7.10143C1.36772 6.41708 1.21786 5.68036 1.21875 4.93605C1.21875 3.43015 1.82082 2.06456 2.79744 1.07096C3.03307 0.830309 3.05744 0.430584 2.80557 0.177697ZM4.23638 1.61589C4.12937 1.50534 3.98308 1.44189 3.82956 1.43945C3.67605 1.437 3.52782 1.49576 3.41738 1.60284C2.97777 2.03842 2.62884 2.55743 2.39087 3.12966C2.15291 3.7019 2.03066 4.31594 2.03125 4.93605C2.0303 5.59172 2.16675 6.24026 2.43173 6.83954C2.69671 7.43881 3.0843 7.97541 3.56932 8.41447C3.68083 8.51338 3.82598 8.56543 3.97467 8.55981C4.12337 8.55419 4.26421 8.49134 4.368 8.38428C4.6345 8.11671 4.58494 7.69578 4.33469 7.45921C3.99166 7.13546 3.71841 6.7445 3.53185 6.31052C3.34528 5.87653 3.24935 5.40873 3.25 4.93605C3.25 3.99792 3.62132 3.14626 4.225 2.52139C4.45738 2.28155 4.49557 1.8753 4.23638 1.61589ZM8.76363 1.61589C8.87063 1.50534 9.01692 1.44189 9.17044 1.43945C9.32395 1.437 9.47218 1.49576 9.58262 1.60284C10.0222 2.03842 10.3712 2.55743 10.6091 3.12966C10.8471 3.7019 10.9693 4.31594 10.9687 4.93605C10.9697 5.59172 10.8333 6.24026 10.5683 6.83954C10.3033 7.43881 9.9157 7.97541 9.43069 8.41447C9.31917 8.51338 9.17403 8.56543 9.02533 8.55981C8.87663 8.55419 8.73579 8.49134 8.632 8.38428C8.3655 8.11671 8.41506 7.69578 8.66531 7.45921C9.00834 7.13546 9.28159 6.7445 9.46816 6.31052C9.65472 5.87653 9.75065 5.40873 9.75 4.93605C9.75 3.99792 9.37869 3.14626 8.775 2.52139C8.54262 2.28155 8.50444 1.8753 8.76363 1.61589ZM10.1944 0.178514C10.2487 0.122945 10.3133 0.078653 10.3846 0.0481677C10.4559 0.0176824 10.5325 0.00160155 10.61 0.000843975C10.6875 8.64e-05 10.7643 0.0146667 10.8362 0.0437523C10.9081 0.0728379 10.9736 0.115859 11.0289 0.170356C11.6544 0.794791 12.1507 1.5374 12.489 2.35534C12.8273 3.17328 13.001 4.05038 13 4.93605C13.001 5.85584 12.8137 6.76602 12.4498 7.61011C12.0858 8.4542 11.5529 9.21417 10.8842 9.84287C10.7717 9.94732 10.623 10.0036 10.4698 9.99982C10.3166 9.99601 10.1709 9.93239 10.0636 9.82247C9.80687 9.56469 9.83856 9.15436 10.0864 8.91698C10.6229 8.40341 11.0498 7.78568 11.3412 7.10133C11.6325 6.41698 11.7822 5.6803 11.7812 4.93605C11.7812 3.43015 11.1792 2.06456 10.2026 1.07096C9.96694 0.830309 9.94256 0.430584 10.1944 0.177697V0.178514ZM6.5 3.7124C6.17677 3.7124 5.86678 3.84132 5.63822 4.0708C5.40966 4.30028 5.28125 4.61152 5.28125 4.93605C5.28125 5.26058 5.40966 5.57182 5.63822 5.8013C5.86678 6.03078 6.17677 6.15969 6.5 6.15969C6.82323 6.15969 7.13323 6.03078 7.36179 5.8013C7.59035 5.57182 7.71875 5.26058 7.71875 4.93605C7.71875 4.61152 7.59035 4.30028 7.36179 4.0708C7.13323 3.84132 6.82323 3.7124 6.5 3.7124Z" fill="#BD1C2C"/>
</svg>
